<svg width="1600" height="1040" viewBox="0 0 1600 1040" fill="none" xmlns="http://www.w3.org/2000/svg">
  <rect width="1600" height="1040" rx="24" fill="#090909"/>
  <rect x="0" y="0" width="280" height="1040" fill="#070707"/>
  <line x1="280" y1="0" x2="280" y2="1040" stroke="#1A1A1A"/>

  <circle cx="44" cy="42" r="18" fill="#16E0D0"/>
  <text x="44" y="48" text-anchor="middle" font-family="Arial, sans-serif" font-size="18" font-weight="700" fill="#090909">F</text>
  <text x="74" y="48" font-family="Arial, sans-serif" font-size="22" font-weight="700" fill="#F5F5F5">FinTrack<tspan fill="#2CF3C6">AI</tspan></text>

  <text x="30" y="105" font-family="Arial, sans-serif" font-size="14" font-weight="700" letter-spacing="4" fill="#4A4A4A">NAVIGATION</text>

  <rect x="18" y="128" width="244" height="44" rx="22" fill="#191919"/>
  <rect x="18" y="138" width="3" height="24" rx="1.5" fill="#11E8D0"/>
  <rect x="34" y="144" width="16" height="12" rx="2" stroke="#12CFF5" stroke-width="2"/>
  <line x1="42" y1="145" x2="42" y2="156" stroke="#12CFF5" stroke-width="2"/>
  <line x1="35" y1="150" x2="49" y2="150" stroke="#12CFF5" stroke-width="2"/>
  <text x="66" y="154" font-family="Arial, sans-serif" font-size="16" font-weight="600" fill="#F3F3F3">Dashboard</text>

  <g fill="#6C6C6C" font-family="Arial, sans-serif" font-size="16">
    <text x="66" y="204">Transactions</text>
    <text x="66" y="252">Upload</text>
    <text x="66" y="300">AI Insights</text>
    <text x="66" y="348">Reports</text>
  </g>

  <g stroke="#5C5C5C" stroke-width="2" stroke-linecap="round">
    <line x1="32" y1="196" x2="48" y2="196"/>
    <line x1="40" y1="188" x2="40" y2="204"/>
    <line x1="34" y1="243" x2="46" y2="243"/>
    <line x1="40" y1="237" x2="40" y2="249"/>
    <circle cx="40" cy="291" r="6"/>
    <line x1="32" y1="299" x2="48" y2="283"/>
    <line x1="32" y1="347" x2="32" y2="336"/>
    <line x1="40" y1="347" x2="40" y2="331"/>
    <line x1="48" y1="347" x2="48" y2="339"/>
  </g>

  <line x1="24" y1="388" x2="256" y2="388" stroke="#171717"/>
  <text x="30" y="418" font-family="Arial, sans-serif" font-size="14" font-weight="700" letter-spacing="4" fill="#4A4A4A">ACCOUNT</text>
  <circle cx="42" cy="464" r="8" fill="#6B6B6B"/>
  <text x="66" y="470" font-family="Arial, sans-serif" font-size="16" fill="#7B7B7B">Profile</text>

  <line x1="24" y1="898" x2="256" y2="898" stroke="#171717"/>
  <circle cx="44" cy="934" r="20" fill="#151515" stroke="#2A2A2A"/>
  <text x="44" y="940" text-anchor="middle" font-family="Arial, sans-serif" font-size="18" font-weight="700" fill="#F2F2F2">S</text>
  <text x="80" y="930" font-family="Arial, sans-serif" font-size="18" font-weight="700" fill="#F3F3F3">Shivam Raj</text>
  <text x="80" y="954" font-family="Arial, sans-serif" font-size="12" fill="#5E5E5E">ashish.raj.00099@gmail.com</text>
  <text x="66" y="996" font-family="Arial, sans-serif" font-size="16" fill="#6D6D6D">Log out</text>

  <text x="326" y="52" font-family="Arial, sans-serif" font-size="20" font-weight="700" fill="#F0F0F0">Sunday, April 19</text>
  <circle cx="1554" cy="36" r="20" fill="#141414" stroke="#242424"/>
  <path d="M1554 28C1550 28 1548 31 1548 35V39L1546 42H1562L1560 39V35C1560 31 1558 28 1554 28Z" fill="#5D5D5D"/>
  <circle cx="1554" cy="44" r="2" fill="#5D5D5D"/>
  <line x1="280" y1="74" x2="1600" y2="74" stroke="#161616"/>

  <rect x="326" y="106" width="92" height="36" rx="18" fill="#111111" stroke="#12CFF5"/>
  <text x="372" y="129" text-anchor="middle" font-family="Arial, sans-serif" font-size="15" font-weight="700" fill="#F3F3F3">All Time</text>
  <rect x="430" y="106" width="90" height="36" rx="18" fill="#111111" stroke="#252525"/>
  <text x="475" y="129" text-anchor="middle" font-family="Arial, sans-serif" font-size="15" font-weight="700" fill="#5F5F5F">90 Days</text>
  <rect x="532" y="106" width="90" height="36" rx="18" fill="#111111" stroke="#252525"/>
  <text x="577" y="129" text-anchor="middle" font-family="Arial, sans-serif" font-size="15" font-weight="700" fill="#5F5F5F">30 Days</text>

  <g>
    <rect x="326" y="182" width="300" height="122" rx="18" fill="#121212" stroke="#252525"/>
    <text x="354" y="214" font-family="Arial, sans-serif" font-size="12" font-weight="700" letter-spacing="3" fill="#505050">TOTAL SPENDING</text>
    <text x="354" y="254" font-family="Arial, sans-serif" font-size="24" font-weight="700" fill="#F5F5F5">₹2,71,012</text>
    <text x="354" y="280" font-family="Arial, sans-serif" font-size="12" fill="#5A5A5A">126 transactions</text>
  </g>

  <g>
    <rect x="644" y="182" width="300" height="122" rx="18" fill="#121212" stroke="#252525"/>
    <text x="672" y="214" font-family="Arial, sans-serif" font-size="12" font-weight="700" letter-spacing="3" fill="#505050">TOTAL INCOME</text>
    <text x="672" y="254" font-family="Arial, sans-serif" font-size="24" font-weight="700" fill="#18F6A8">₹6,30,000</text>
    <text x="672" y="280" font-family="Arial, sans-serif" font-size="12" fill="#5A5A5A">credited</text>
  </g>

  <g>
    <rect x="962" y="182" width="300" height="122" rx="18" fill="#121212" stroke="#252525"/>
    <text x="990" y="214" font-family="Arial, sans-serif" font-size="12" font-weight="700" letter-spacing="3" fill="#505050">NET BALANCE</text>
    <text x="990" y="254" font-family="Arial, sans-serif" font-size="24" font-weight="700" fill="#18F6A8">+₹3,58,988</text>
    <text x="990" y="280" font-family="Arial, sans-serif" font-size="12" fill="#5A5A5A">57.0% saving rate</text>
  </g>

  <g>
    <rect x="1280" y="182" width="282" height="122" rx="18" fill="#121212" stroke="#252525"/>
    <text x="1308" y="214" font-family="Arial, sans-serif" font-size="12" font-weight="700" letter-spacing="3" fill="#505050">TOP CATEGORY</text>
    <text x="1308" y="254" font-family="Arial, sans-serif" font-size="24" font-weight="700" fill="#F4F4F4">Housing</text>
    <text x="1308" y="280" font-family="Arial, sans-serif" font-size="12" fill="#5A5A5A">₹1,26,000</text>
  </g>

  <g>
    <rect x="326" y="344" width="820" height="440" rx="22" fill="#121212" stroke="#252525"/>
    <text x="354" y="388" font-family="Arial, sans-serif" font-size="18" font-weight="700" fill="#F5F5F5">Spending Analysis</text>
    <text x="354" y="412" font-family="Arial, sans-serif" font-size="12" fill="#636363">Last 7 days</text>
    <circle cx="1050" cy="396" r="5" fill="#17C6F1"/>
    <text x="1064" y="400" font-family="Arial, sans-serif" font-size="12" fill="#535353">EXPENSES</text>

    <g stroke="#1D1D1D">
      <line x1="380" y1="730" x2="1118" y2="730"/>
      <line x1="380" y1="690" x2="1118" y2="690"/>
      <line x1="380" y1="650" x2="1118" y2="650"/>
      <line x1="380" y1="610" x2="1118" y2="610"/>
      <line x1="380" y1="570" x2="1118" y2="570"/>
      <line x1="380" y1="530" x2="1118" y2="530"/>
      <line x1="380" y1="490" x2="1118" y2="490"/>
      <line x1="380" y1="450" x2="1118" y2="450"/>
    </g>

    <g fill="#444" font-family="Arial, sans-serif" font-size="10">
      <text x="356" y="734">0</text>
      <text x="344" y="694">5,000</text>
      <text x="338" y="654">10,000</text>
      <text x="338" y="614">15,000</text>
      <text x="338" y="574">20,000</text>
      <text x="338" y="534">25,000</text>
      <text x="338" y="494">30,000</text>
      <text x="338" y="454">35,000</text>
    </g>

    <g fill="#28C7DC">
      <rect x="440" y="646" width="28" height="84" rx="6"/>
      <rect x="540" y="682" width="28" height="48" rx="6"/>
      <rect x="640" y="670" width="28" height="60" rx="6"/>
      <rect x="740" y="590" width="28" height="140" rx="6"/>
      <rect x="840" y="452" width="28" height="278" rx="6"/>
      <rect x="940" y="720" width="28" height="10" rx="5"/>
      <rect x="1040" y="716" width="28" height="14" rx="5"/>
    </g>

    <g fill="#4A4A4A" font-family="Arial, sans-serif" font-size="10">
      <text x="440" y="756">15/3</text>
      <text x="540" y="756">16/3</text>
      <text x="640" y="756">18/3</text>
      <text x="740" y="756">20/3</text>
      <text x="840" y="756">22/3</text>
      <text x="940" y="756">25/3</text>
      <text x="1040" y="756">28/3</text>
    </g>
  </g>

  <g>
    <rect x="1172" y="344" width="390" height="440" rx="22" fill="#121212" stroke="#252525"/>
    <text x="1200" y="388" font-family="Arial, sans-serif" font-size="18" font-weight="700" fill="#F5F5F5">Recent Activity</text>
    <text x="1518" y="388" text-anchor="end" font-family="Arial, sans-serif" font-size="12" font-weight="700" fill="#13CFF4">VIEW ALL</text>

    <g font-family="Arial, sans-serif">
      <circle cx="1220" cy="442" r="20" fill="#113121"/>
      <text x="1220" y="448" text-anchor="middle" font-size="24" font-weight="700" fill="#17F5A5">↑</text>
      <text x="1252" y="434" font-size="16" font-weight="700" fill="#F3F3F3">Monthly Salary</text>
      <text x="1252" y="456" font-size="12" fill="#5C5C5C">Income • Mar 1</text>
      <text x="1528" y="446" text-anchor="end" font-size="16" font-weight="700" fill="#18F6A8">+₹75,000</text>
    </g>

    <g transform="translate(0 56)" font-family="Arial, sans-serif">
      <circle cx="1220" cy="442" r="20" fill="#113121"/>
      <text x="1220" y="448" text-anchor="middle" font-size="24" font-weight="700" fill="#17F5A5">↑</text>
      <text x="1252" y="434" font-size="16" font-weight="700" fill="#F3F3F3">Monthly Salary</text>
      <text x="1252" y="456" font-size="12" fill="#5C5C5C">Income • Mar 1</text>
      <text x="1528" y="446" text-anchor="end" font-size="16" font-weight="700" fill="#18F6A8">+₹75,000</text>
    </g>

    <g transform="translate(0 112)" font-family="Arial, sans-serif">
      <circle cx="1220" cy="442" r="20" fill="#113121"/>
      <text x="1220" y="448" text-anchor="middle" font-size="24" font-weight="700" fill="#17F5A5">↑</text>
      <text x="1252" y="434" font-size="16" font-weight="700" fill="#F3F3F3">Monthly Salary</text>
      <text x="1252" y="456" font-size="12" fill="#5C5C5C">Income • Mar 1</text>
      <text x="1528" y="446" text-anchor="end" font-size="16" font-weight="700" fill="#18F6A8">+₹75,000</text>
    </g>

    <g transform="translate(0 168)" font-family="Arial, sans-serif">
      <circle cx="1220" cy="442" r="20" fill="#113121"/>
      <text x="1220" y="448" text-anchor="middle" font-size="24" font-weight="700" fill="#17F5A5">↑</text>
      <text x="1252" y="434" font-size="16" font-weight="700" fill="#F3F3F3">Monthly Salary</text>
      <text x="1252" y="456" font-size="12" fill="#5C5C5C">Income • Mar 1</text>
      <text x="1528" y="446" text-anchor="end" font-size="16" font-weight="700" fill="#18F6A8">+₹75,000</text>
    </g>

    <g transform="translate(0 224)" font-family="Arial, sans-serif">
      <circle cx="1220" cy="442" r="20" fill="#113121"/>
      <text x="1220" y="448" text-anchor="middle" font-size="24" font-weight="700" fill="#17F5A5">↑</text>
      <text x="1252" y="434" font-size="16" font-weight="700" fill="#F3F3F3">Monthly Salary</text>
      <text x="1252" y="456" font-size="12" fill="#5C5C5C">Income • Mar 1</text>
      <text x="1528" y="446" text-anchor="end" font-size="16" font-weight="700" fill="#18F6A8">+₹75,000</text>
    </g>
  </g>

  <g>
    <rect x="326" y="822" width="1236" height="198" rx="22" fill="#121212" stroke="#252525"/>
    <text x="354" y="864" font-family="Arial, sans-serif" font-size="18" font-weight="700" fill="#F5F5F5">Spending by Category</text>

    <g font-family="Arial, sans-serif">
      <rect x="354" y="902" width="186" height="118" rx="18" fill="#171717"/>
      <text x="372" y="930" font-size="12" font-weight="700" letter-spacing="2" fill="#535353">HOUSING</text>
      <text x="372" y="968" font-size="18" font-weight="700" fill="#F4F4F4">₹1,26,000</text>
      <rect x="372" y="982" width="150" height="4" rx="2" fill="#303030"/>
      <rect x="372" y="982" width="64" height="4" rx="2" fill="#14E5D1"/>
      <text x="372" y="1004" font-size="12" fill="#5F5F5F">46%</text>

      <rect x="556" y="902" width="186" height="118" rx="18" fill="#171717"/>
      <text x="574" y="930" font-size="12" font-weight="700" letter-spacing="2" fill="#535353">OTHER</text>
      <text x="574" y="968" font-size="18" font-weight="700" fill="#F4F4F4">₹75,369</text>
      <rect x="574" y="982" width="150" height="4" rx="2" fill="#303030"/>
      <rect x="574" y="982" width="40" height="4" rx="2" fill="#14E5D1"/>
      <text x="574" y="1004" font-size="12" fill="#5F5F5F">28%</text>

      <rect x="758" y="902" width="186" height="118" rx="18" fill="#171717"/>
      <text x="776" y="930" font-size="12" font-weight="700" letter-spacing="2" fill="#535353">SHOPPING</text>
      <text x="776" y="968" font-size="18" font-weight="700" fill="#F4F4F4">₹24,500</text>
      <rect x="776" y="982" width="150" height="4" rx="2" fill="#303030"/>
      <rect x="776" y="982" width="18" height="4" rx="2" fill="#14E5D1"/>
      <text x="776" y="1004" font-size="12" fill="#5F5F5F">9%</text>

      <rect x="960" y="902" width="186" height="118" rx="18" fill="#171717"/>
      <text x="978" y="930" font-size="12" font-weight="700" letter-spacing="2" fill="#535353">UTILITIES</text>
      <text x="978" y="968" font-size="18" font-weight="700" fill="#F4F4F4">₹18,193</text>
      <rect x="978" y="982" width="150" height="4" rx="2" fill="#303030"/>
      <rect x="978" y="982" width="14" height="4" rx="2" fill="#14E5D1"/>
      <text x="978" y="1004" font-size="12" fill="#5F5F5F">7%</text>

      <rect x="1162" y="902" width="186" height="118" rx="18" fill="#171717"/>
      <text x="1180" y="930" font-size="12" font-weight="700" letter-spacing="2" fill="#535353">FOOD &amp; DINING</text>
      <text x="1180" y="968" font-size="18" font-weight="700" fill="#F4F4F4">₹14,210</text>
      <rect x="1180" y="982" width="150" height="4" rx="2" fill="#303030"/>
      <rect x="1180" y="982" width="8" height="4" rx="2" fill="#14E5D1"/>
      <text x="1180" y="1004" font-size="12" fill="#5F5F5F">5%</text>

      <rect x="1364" y="902" width="170" height="118" rx="18" fill="#171717"/>
      <text x="1382" y="930" font-size="12" font-weight="700" letter-spacing="2" fill="#535353">TRANSPORT</text>
      <text x="1382" y="968" font-size="18" font-weight="700" fill="#F4F4F4">₹12,740</text>
      <rect x="1382" y="982" width="134" height="4" rx="2" fill="#303030"/>
      <rect x="1382" y="982" width="8" height="4" rx="2" fill="#14E5D1"/>
      <text x="1382" y="1004" font-size="12" fill="#5F5F5F">5%</text>
    </g>
  </g>
</svg>
